<svg xmlns="http://www.w3.org/2000/svg" xmlns:xlink="http://www.w3.org/1999/xlink" width="500" zoomAndPan="magnify" viewBox="0 0 375 374.999991" height="500" preserveAspectRatio="xMidYMid meet" version="1.0"><defs><clipPath id="e5f78a8465"><path d="M 20 68 L 90 68 L 90 138 L 20 138 Z M 20 68 " clip-rule="nonzero"/></clipPath><clipPath id="7b781810d4"><path d="M 19.160156 82.851562 L 19.160156 123.003906 C 19.160156 131.703125 26.214844 138.753906 34.910156 138.753906 L 75.0625 138.753906 C 83.761719 138.753906 90.8125 131.703125 90.8125 123.003906 L 90.8125 82.851562 C 90.8125 74.15625 83.761719 67.101562 75.0625 67.101562 L 34.910156 67.101562 C 26.214844 67.101562 19.160156 74.15625 19.160156 82.851562 Z M 19.160156 82.851562 " clip-rule="nonzero"/></clipPath><clipPath id="859c0da217"><path d="M 35.8125 68.003906 L 74.164062 68.003906 C 82.859375 68.003906 89.914062 75.054688 89.914062 83.753906 L 89.914062 122.105469 C 89.914062 130.800781 82.859375 137.855469 74.164062 137.855469 L 35.8125 137.855469 C 27.113281 137.855469 20.0625 130.800781 20.0625 122.105469 L 20.0625 83.753906 C 20.0625 75.054688 27.113281 68.003906 35.8125 68.003906 Z M 35.8125 68.003906 " clip-rule="nonzero"/></clipPath><clipPath id="9a9c8ef612"><path d="M 19.160156 67.101562 L 91 67.101562 L 91 139 L 19.160156 139 Z M 19.160156 67.101562 " clip-rule="nonzero"/></clipPath><clipPath id="d1bfd8ffc3"><path d="M 19.160156 82.851562 L 19.160156 123.003906 C 19.160156 131.703125 26.214844 138.753906 34.910156 138.753906 L 75.0625 138.753906 C 83.761719 138.753906 90.8125 131.703125 90.8125 123.003906 L 90.8125 82.851562 C 90.8125 74.15625 83.761719 67.101562 75.0625 67.101562 L 34.910156 67.101562 C 26.214844 67.101562 19.160156 74.15625 19.160156 82.851562 Z M 19.160156 82.851562 " clip-rule="nonzero"/></clipPath><clipPath id="f75be000b5"><path d="M 19.160156 82.851562 L 19.160156 123.003906 C 19.160156 131.699219 26.214844 138.75 34.910156 138.75 L 75.0625 138.75 C 83.757812 138.75 90.808594 131.699219 90.808594 123.003906 L 90.808594 82.851562 C 90.808594 74.15625 83.757812 67.101562 75.0625 67.101562 L 34.910156 67.101562 C 26.214844 67.101562 19.160156 74.15625 19.160156 82.851562 Z M 19.160156 82.851562 " clip-rule="nonzero"/></clipPath><clipPath id="4191b3c9bc"><path d="M 20 162 L 90 162 L 90 232 L 20 232 Z M 20 162 " clip-rule="nonzero"/></clipPath><clipPath id="3af9a93e11"><path d="M 19.160156 176.902344 L 19.160156 217.050781 C 19.160156 225.75 26.214844 232.800781 34.910156 232.800781 L 75.0625 232.800781 C 83.761719 232.800781 90.8125 225.75 90.8125 217.050781 L 90.8125 176.902344 C 90.8125 168.203125 83.761719 161.152344 75.0625 161.152344 L 34.910156 161.152344 C 26.214844 161.152344 19.160156 168.203125 19.160156 176.902344 Z M 19.160156 176.902344 " clip-rule="nonzero"/></clipPath><clipPath id="e2903ff95f"><path d="M 35.8125 162.050781 L 74.164062 162.050781 C 82.859375 162.050781 89.914062 169.101562 89.914062 177.800781 L 89.914062 216.152344 C 89.914062 224.851562 82.859375 231.902344 74.164062 231.902344 L 35.8125 231.902344 C 27.113281 231.902344 20.0625 224.851562 20.0625 216.152344 L 20.0625 177.800781 C 20.0625 169.101562 27.113281 162.050781 35.8125 162.050781 Z M 35.8125 162.050781 " clip-rule="nonzero"/></clipPath><clipPath id="7d9f0827ed"><path d="M 19.160156 161.152344 L 91 161.152344 L 91 233 L 19.160156 233 Z M 19.160156 161.152344 " clip-rule="nonzero"/></clipPath><clipPath id="659084681b"><path d="M 19.160156 176.902344 L 19.160156 217.050781 C 19.160156 225.75 26.214844 232.800781 34.910156 232.800781 L 75.0625 232.800781 C 83.761719 232.800781 90.8125 225.75 90.8125 217.050781 L 90.8125 176.902344 C 90.8125 168.203125 83.761719 161.152344 75.0625 161.152344 L 34.910156 161.152344 C 26.214844 161.152344 19.160156 168.203125 19.160156 176.902344 Z M 19.160156 176.902344 " clip-rule="nonzero"/></clipPath><clipPath id="1697c02e11"><path d="M 19.160156 176.902344 L 19.160156 217.050781 C 19.160156 225.75 26.214844 232.800781 34.910156 232.800781 L 75.0625 232.800781 C 83.757812 232.800781 90.808594 225.75 90.808594 217.050781 L 90.808594 176.902344 C 90.808594 168.203125 83.757812 161.152344 75.0625 161.152344 L 34.910156 161.152344 C 26.214844 161.152344 19.160156 168.203125 19.160156 176.902344 Z M 19.160156 176.902344 " clip-rule="nonzero"/></clipPath><clipPath id="708af220e6"><path d="M 20 255.699219 L 90 255.699219 L 90 326 L 20 326 Z M 20 255.699219 " clip-rule="nonzero"/></clipPath><clipPath id="e34e8a6fe5"><path d="M 19.160156 270.699219 L 19.160156 310.851562 C 19.160156 319.550781 26.214844 326.601562 34.910156 326.601562 L 75.0625 326.601562 C 83.761719 326.601562 90.8125 319.550781 90.8125 310.851562 L 90.8125 270.699219 C 90.8125 262 83.761719 254.949219 75.0625 254.949219 L 34.910156 254.949219 C 26.214844 254.949219 19.160156 262 19.160156 270.699219 Z M 19.160156 270.699219 " clip-rule="nonzero"/></clipPath><clipPath id="790521488d"><path d="M 35.8125 255.851562 L 74.164062 255.851562 C 82.859375 255.851562 89.914062 262.902344 89.914062 271.601562 L 89.914062 309.949219 C 89.914062 318.648438 82.859375 325.699219 74.164062 325.699219 L 35.8125 325.699219 C 27.113281 325.699219 20.0625 318.648438 20.0625 309.949219 L 20.0625 271.601562 C 20.0625 262.902344 27.113281 255.851562 35.8125 255.851562 Z M 35.8125 255.851562 " clip-rule="nonzero"/></clipPath><clipPath id="96937cf07a"><path d="M 19.160156 254.949219 L 91 254.949219 L 91 326.949219 L 19.160156 326.949219 Z M 19.160156 254.949219 " clip-rule="nonzero"/></clipPath><clipPath id="d200ece8a9"><path d="M 19.160156 270.699219 L 19.160156 310.851562 C 19.160156 319.550781 26.214844 326.601562 34.910156 326.601562 L 75.0625 326.601562 C 83.761719 326.601562 90.8125 319.550781 90.8125 310.851562 L 90.8125 270.699219 C 90.8125 262 83.761719 254.949219 75.0625 254.949219 L 34.910156 254.949219 C 26.214844 254.949219 19.160156 262 19.160156 270.699219 Z M 19.160156 270.699219 " clip-rule="nonzero"/></clipPath><clipPath id="e8bf766221"><path d="M 19.160156 270.699219 L 19.160156 310.847656 C 19.160156 319.546875 26.214844 326.597656 34.910156 326.597656 L 75.0625 326.597656 C 83.757812 326.597656 90.808594 319.546875 90.808594 310.847656 L 90.808594 270.699219 C 90.808594 262 83.757812 254.949219 75.0625 254.949219 L 34.910156 254.949219 C 26.214844 254.949219 19.160156 262 19.160156 270.699219 Z M 19.160156 270.699219 " clip-rule="nonzero"/></clipPath></defs><g clip-path="url(#e5f78a8465)"><g clip-path="url(#7b781810d4)"><g clip-path="url(#859c0da217)"><path fill="#edeb3d" d="M 77.664062 72.644531 C 82.054688 72.644531 85.628906 76.21875 85.628906 80.605469 L 85.628906 125.605469 C 85.628906 129.996094 82.054688 133.570312 77.664062 133.570312 L 32.664062 133.570312 C 28.277344 133.570312 24.703125 129.996094 24.703125 125.605469 L 24.703125 80.605469 C 24.703125 76.21875 28.277344 72.644531 32.664062 72.644531 L 77.664062 72.644531 M 77.664062 67.105469 L 32.664062 67.105469 C 25.207031 67.105469 19.164062 73.148438 19.164062 80.605469 L 19.164062 125.605469 C 19.164062 133.066406 25.207031 139.105469 32.664062 139.105469 L 77.664062 139.105469 C 85.121094 139.105469 91.164062 133.066406 91.164062 125.605469 L 91.164062 80.605469 C 91.164062 73.148438 85.121094 67.105469 77.664062 67.105469 Z M 77.664062 67.105469 " fill-opacity="1" fill-rule="nonzero"/></g></g></g><g clip-path="url(#9a9c8ef612)"><g clip-path="url(#d1bfd8ffc3)"><g clip-path="url(#f75be000b5)"><path stroke-linecap="butt" transform="matrix(0.75, 0, 0, 0.75, 19.161837, 67.10336)" fill="none" stroke-linejoin="miter" d="M -0.00224068 20.997605 L -0.00224068 74.534067 C -0.00224068 86.127818 9.40401 95.52886 20.997761 95.52886 L 74.534223 95.52886 C 86.127973 95.52886 95.529016 86.127818 95.529016 74.534067 L 95.529016 20.997605 C 95.529016 9.403854 86.127973 -0.00239612 74.534223 -0.00239612 L 20.997761 -0.00239612 C 9.40401 -0.00239612 -0.00224068 9.403854 -0.00224068 20.997605 Z M -0.00224068 20.997605 " stroke="#edd63d" stroke-width="30" stroke-opacity="1" stroke-miterlimit="4"/></g></g></g><g clip-path="url(#4191b3c9bc)"><g clip-path="url(#3af9a93e11)"><g clip-path="url(#e2903ff95f)"><path fill="none" d="M 77.664062 166.691406 C 82.054688 166.691406 85.628906 170.265625 85.628906 174.65625 L 85.628906 219.65625 C 85.628906 224.042969 82.054688 227.617188 77.664062 227.617188 L 32.664062 227.617188 C 28.277344 227.617188 24.703125 224.042969 24.703125 219.65625 L 24.703125 174.65625 C 24.703125 170.265625 28.277344 166.691406 32.664062 166.691406 L 77.664062 166.691406 M 77.664062 161.15625 L 32.664062 161.15625 C 25.207031 161.15625 19.164062 167.195312 19.164062 174.65625 L 19.164062 219.65625 C 19.164062 227.113281 25.207031 233.15625 32.664062 233.15625 L 77.664062 233.15625 C 85.121094 233.15625 91.164062 227.113281 91.164062 219.65625 L 91.164062 174.65625 C 91.164062 167.195312 85.121094 161.15625 77.664062 161.15625 Z M 77.664062 161.15625 " fill-opacity="1" fill-rule="nonzero"/></g></g></g><g clip-path="url(#7d9f0827ed)"><g clip-path="url(#659084681b)"><g clip-path="url(#1697c02e11)"><path stroke-linecap="butt" transform="matrix(0.75, 0, 0, 0.75, 19.161837, 161.151112)" fill="none" stroke-linejoin="miter" d="M -0.00224068 21.001644 L -0.00224068 74.532897 C -0.00224068 86.131857 9.40401 95.532899 20.997761 95.532899 L 74.534223 95.532899 C 86.127973 95.532899 95.529016 86.131857 95.529016 74.532897 L 95.529016 21.001644 C 95.529016 9.402685 86.127973 0.00164258 74.534223 0.00164258 L 20.997761 0.00164258 C 9.40401 0.00164258 -0.00224068 9.402685 -0.00224068 21.001644 Z M -0.00224068 21.001644 " stroke="#edd63d" stroke-width="30" stroke-opacity="1" stroke-miterlimit="4"/></g></g></g><g clip-path="url(#708af220e6)"><g clip-path="url(#e34e8a6fe5)"><g clip-path="url(#790521488d)"><path fill="none" d="M 77.664062 260.492188 C 82.054688 260.492188 85.628906 264.066406 85.628906 268.453125 L 85.628906 313.453125 C 85.628906 317.84375 82.054688 321.414062 77.664062 321.414062 L 32.664062 321.414062 C 28.277344 321.414062 24.703125 317.84375 24.703125 313.453125 L 24.703125 268.453125 C 24.703125 264.066406 28.277344 260.492188 32.664062 260.492188 L 77.664062 260.492188 M 77.664062 254.953125 L 32.664062 254.953125 C 25.207031 254.953125 19.164062 260.996094 19.164062 268.453125 L 19.164062 313.453125 C 19.164062 320.910156 25.207031 326.953125 32.664062 326.953125 L 77.664062 326.953125 C 85.121094 326.953125 91.164062 320.910156 91.164062 313.453125 L 91.164062 268.453125 C 91.164062 260.996094 85.121094 254.953125 77.664062 254.953125 Z M 77.664062 254.953125 " fill-opacity="1" fill-rule="nonzero"/></g></g></g><g clip-path="url(#96937cf07a)"><g clip-path="url(#d200ece8a9)"><g clip-path="url(#e8bf766221)"><path stroke-linecap="butt" transform="matrix(0.75, 0, 0, 0.75, 19.161837, 254.95015)" fill="none" stroke-linejoin="miter" d="M -0.00224068 20.99876 L -0.00224068 74.530014 C -0.00224068 86.128973 9.40401 95.530015 20.997761 95.530015 L 74.534223 95.530015 C 86.127973 95.530015 95.529016 86.128973 95.529016 74.530014 L 95.529016 20.99876 C 95.529016 9.399801 86.127973 -0.00124121 74.534223 -0.00124121 L 20.997761 -0.00124121 C 9.40401 -0.00124121 -0.00224068 9.399801 -0.00224068 20.99876 Z M -0.00224068 20.99876 " stroke="#edd63d" stroke-width="30" stroke-opacity="1" stroke-miterlimit="4"/></g></g></g><path stroke-linecap="round" transform="matrix(0.75, 0, 0, 0.75, 120.661228, 97.303794)" fill="none" stroke-linejoin="miter" d="M 7.498572 7.501192 L 306.071508 7.501192 " stroke="#edd63d" stroke-width="15" stroke-opacity="1" stroke-miterlimit="4"/><path stroke-linecap="round" transform="matrix(0.75, 0, 0, 0.75, 120.661228, 191.35156)" fill="none" stroke-linejoin="miter" d="M 7.498572 7.500004 L 306.071508 7.500004 " stroke="#edd63d" stroke-width="15" stroke-opacity="1" stroke-miterlimit="4"/><path stroke-linecap="round" transform="matrix(0.75, 0, 0, 0.75, 120.661228, 285.150596)" fill="none" stroke-linejoin="miter" d="M 7.498572 7.502331 L 306.071508 7.502331 " stroke="#edd63d" stroke-width="15" stroke-opacity="1" stroke-miterlimit="4"/><path stroke-linecap="round" transform="matrix(0.53033, 0.53033, -0.53033, 0.53033, 38.404243, 183.693358)" fill="none" stroke-linejoin="miter" d="M 7.498331 7.501912 L 45.085479 7.501912 " stroke="#edd63d" stroke-width="15" stroke-opacity="1" stroke-miterlimit="4"/><path stroke-linecap="round" transform="matrix(0.398114, -0.635614, 0.635614, 0.398114, 51.994904, 214.72333)" fill="none" stroke-linejoin="miter" d="M 7.49951 7.497521 L 104.085246 7.499062 " stroke="#edd63d" stroke-width="15" stroke-opacity="1" stroke-miterlimit="4"/><path stroke-linecap="round" transform="matrix(0.53033, 0.53033, -0.53033, 0.53033, 38.176767, 89.486296)" fill="none" stroke-linejoin="miter" d="M 7.499221 7.50108 L 45.086368 7.50108 " stroke="#edd63d" stroke-width="15" stroke-opacity="1" stroke-miterlimit="4"/><path stroke-linecap="round" transform="matrix(0.398114, -0.635614, 0.635614, 0.398114, 51.994904, 120.516282)" fill="none" stroke-linejoin="miter" d="M 7.499491 7.497533 L 104.085228 7.499073 " stroke="#edd63d" stroke-width="15" stroke-opacity="1" stroke-miterlimit="4"/></svg>