<svg version="1.1" xmlns="http://www.w3.org/2000/svg" xmlns:xlink="http://www.w3.org/1999/xlink" width="329.70536" height="329.2765" viewBox="0,0,329.70536,329.2765"><g transform="translate(-75.14737,-15.36781)"><g data-paper-data="{&quot;isPaintingLayer&quot;:true}" fill-rule="nonzero" stroke="none" stroke-width="3.13" stroke-linecap="butt" stroke-linejoin="miter" stroke-miterlimit="10" stroke-dasharray="" stroke-dashoffset="0" style="mix-blend-mode: normal"><path d="" fill="#07942d"/><g fill="#021daa"><path d="M355.34865,210.64094l2.8412,-117.78389l46.66288,-14.17802v196.50477l-46.66288,19.72046l-68.56673,-84.41727v113.33315l-49.51108,20.81215l-2.00844,-204.76245l51.51952,-16.50136z"/><path d="M121.81026,294.90423l-3.00915,-121.22693l47.04778,101.73041z"/><path d="M201.94474,119.07169l33.84949,-71.96077l50.32286,-13.77913v78.09105l-10.09816,7.43191z"/></g><g fill="#07942d"><path d="M243.78596,44.52862l-42.3311,75.4108l-10.85395,3.42904l-21.91084,-44.68944l25.41686,-45.56419z"/><path d="M240.12404,138.90914v205.73517l-49.51108,-20.81215l-68.79067,-133.4175v104.50163l-46.66288,-19.71346v-196.51177l48.65732,17.0752l64.7528,122.0387l2.04343,-94.42446z"/><path d="M358.18979,91.0865v130.42934l-68.56673,-98.14741l-13.45022,-4.68868l35.35406,-40.00076z"/></g><g fill="#ff2920"><path d="M118.39522,89.78492l50.29486,-11.10588l21.91084,44.68944v102.74512z"/><path d="M289.62307,205.30145l68.56673,89.60282l-54.54967,-21.02909l-14.01706,-19.72046z"/></g><g fill="#ffbd01"><path d="M122.03419,60.71508l46.65589,17.96395l-46.65589,17.96395l-46.88682,-17.96395z" data-paper-data="{&quot;index&quot;:null}"/><path d="M190.60092,123.36846l49.72802,-18.83871l49.29414,18.83871l-49.51108,18.83871z"/><path d="M286.11706,33.33176v0l-46.00507,17.74701l-46.00507,-17.96395l46.00507,-17.74701z"/><path d="M358.18983,60.71506l46.66288,17.96395l-46.66288,17.96395l-46.66288,-17.96395z"/></g></g></g></svg>